<?xml version="1.0" standalone="no"?>
<!DOCTYPE svg PUBLIC "-//W3C//DTD SVG 20010904//EN"
    "http://www.w3.org/TR/2001/REC-SVG-20010904/DTD/svg10.dtd">
<svg version="1.0" xmlns="http://www.w3.org/2000/svg"
     width="50" height="50" viewBox="0 0 512.000000 512.000000"
     preserveAspectRatio="xMidYMid meet" >

    <g transform="translate(0.000000,512.000000) scale(0.100000,-0.100000)"
       fill="#FFFFFF" stroke="none">
        <path d="M233 5102 c-106 -37 -201 -140 -223 -245 -8 -38 -10 -680 -8 -2327
l3 -2275 22 -47 c30 -66 105 -143 172 -175 l56 -28 1267 -3 1267 -2 27 24 c39
33 39 89 0 122 l-27 24 -1240 0 c-1030 0 -1245 2 -1272 14 -39 16 -82 61 -96
99 -15 40 -15 4514 0 4554 14 38 57 83 96 99 27 12 217 14 1112 14 l1079 0 4
-332 c4 -317 5 -336 26 -390 30 -75 101 -149 177 -185 l60 -28 338 -3 337 -3
0 -527 c0 -401 3 -533 13 -552 27 -54 94 -63 137 -20 19 19 20 36 20 610 0
494 -2 595 -14 618 -21 40 -935 947 -973 966 -29 14 -148 16 -1170 16 -1066
-1 -1141 -2 -1190 -18z m2810 -920 c-282 -3 -313 3 -361 66 l-27 35 -3 271 -3
271 321 -320 320 -320 -247 -3z"/>
        <path d="M455 4665 c-34 -33 -34 -83 1 -116 l26 -24 571 -3 c418 -2 579 1 600
9 34 14 61 62 51 92 -3 12 -16 32 -27 45 l-20 22 -589 0 -589 0 -24 -25z"/>
        <path d="M490 4263 c-58 -22 -77 -88 -39 -137 l20 -26 294 0 c328 0 330 0 341
71 5 29 1 41 -19 65 l-25 29 -279 2 c-153 1 -285 -1 -293 -4z"/>
        <path d="M452 3727 c-31 -33 -29 -87 4 -118 24 -23 33 -24 170 -27 l144 -3 0
-355 0 -355 25 -24 c24 -25 65 -32 100 -19 42 16 45 46 45 408 l0 345 146 3
c146 3 146 3 170 31 31 37 31 81 -1 112 l-24 25 -379 0 -379 0 -21 -23z"/>
        <path d="M1733 3728 c-32 -36 -363 -793 -363 -832 0 -43 35 -76 81 -76 48 0
68 24 121 145 l44 100 175 3 175 2 48 -110 c26 -61 58 -117 69 -125 30 -21 83
-19 107 5 43 43 42 48 -150 480 -110 248 -190 414 -201 420 -32 18 -84 12
-106 -12z m107 0 c22 -51 40 -96 40 -102 0 -5 -40 -9 -91 -9 -88 0 -90 1
-84 22 14 42 86 191 90 186 3 -3 23 -46 45 -97z"/>
        <path d="M2415 3725 c-44 -43 -35 -67 94 -260 l119 -178 -67 -101 c-37 -56
-91 -136 -119 -179 -59 -90 -65 -125 -27 -162 24 -25 65 -32 100 -19 9 4 62
74 117 156 l100 150 95 -143 c52 -79 102 -150 111 -156 27 -22 80 -16 107 12
44 43 36 68 -93 262 l-118 178 118 178 c126 190 135 213 97 261 -22 28 -72 36
-108 17 -9 -6 -59 -73 -110 -150 -51 -78 -96 -141 -101 -141 -4 0 -49 63 -100
141 -52 77 -102 144 -111 150 -32 17 -79 10 -104 -16z"/>
        <path d="M3605 2724 c-338 -51 -595 -175 -814 -395 -193 -192 -319 -429 -377
-704 -28 -132 -26 -404 3 -535 131 -587 597 -1012 1186 -1081 410 -48 814 95
1113 395 487 486 538 1234 124 1787 -74 98 -228 242 -338 314 -154 101 -299
160 -487 200 -77 16 -345 29 -410 19z m325 0 c262 -40 493 -159 675 -347
172 -178 270 -361 321 -601 25 -115 25 -352 0 -468 -102 -474 -462 -834 -936
-936 -116 -25 -353 -25 -468 0 -161 34 -311 98 -445 187 -89 60 -256 231 -316
324 -230 353 -263 781 -90 1164 105 232 349 475 581 580 213 97 453 131 678
97z"/>
        <path d="M4428 1738 c-50 -41 -912 -769 -991 -836 -16 -14 -29 -4 -171 136
-142 141 -155 152 -190 152 -49 0 -86 -36 -86 -82 0 -30 20 -53 199 -232 194
-193 201 -199 232 -192 18 3 42 15 54 25 11 10 269 228 572 485 381 321 555
474 559 491 8 31 -12 82 -37 95 -40 22 -76 11 -141 -42z"/>
        <path d="M455 2535 c-17 -16 -25 -35 -25 -60 0 -25 8 -44 25 -60 l24 -25 1055
0 1055 0 25 23 c38 34 39 85 1 122 l-24 25 -1056 0 -1056 0 -24 -25z"/>
        <path d="M455 2105 c-34 -33 -34 -83 1 -116 l26 -24 866 -3 c477 -1 877 0 889
3 63 15 86 105 37 144 -27 21 -32 21 -911 21 l-884 0 -24 -25z"/>
        <path d="M490 1703 c-58 -21 -77 -88 -39 -137 l20 -26 765 0 c747 0 764 0 784
20 42 42 32 111 -20 137 -20 10 -186 13 -760 12 -404 0 -742 -3 -750 -6z"/>
        <path d="M455 1255 c-17 -16 -25 -35 -25 -60 0 -25 8 -44 25 -60 l24 -25 331
0 331 0 24 25 c34 33 34 87 0 120 l-24 25 -331 0 -331 0 -24 -25z"/>
    </g>
</svg>
